<svg width="24" height="24" viewBox="0 0 24 24" fill="none" xmlns="http://www.w3.org/2000/svg">
<rect width="24" height="24" fill="white"/>
<path d="M12.06 16.5V11.5M14.5 14H9.5" stroke="url(#paint0_linear_34_71)" stroke-width="1.5" stroke-miterlimit="10" stroke-linecap="round" stroke-linejoin="round"/>
<path d="M22 11V17C22 21 21 22 17 22H7C3 22 2 21 2 17V7C2 3 3 2 7 2H8.5C10 2 10.33 2.44 10.9 3.2L12.4 5.2C12.78 5.7 13 6 14 6H17C21 6 22 7 22 11Z" stroke="url(#paint1_linear_34_71)" stroke-width="1.5" stroke-miterlimit="10"/>
<defs>
<linearGradient id="paint0_linear_34_71" x1="12" y1="11.5" x2="12" y2="16.5" gradientUnits="userSpaceOnUse">
<stop stop-color="#F64F5A"/>
<stop offset="0.479167" stop-color="#CC6BD3" stop-opacity="0.92"/>
<stop offset="1" stop-color="#1BBEE9"/>
</linearGradient>
<linearGradient id="paint1_linear_34_71" x1="12" y1="2" x2="12" y2="22" gradientUnits="userSpaceOnUse">
<stop stop-color="#F64F5A"/>
<stop offset="0.479167" stop-color="#CC6BD3" stop-opacity="0.92"/>
<stop offset="1" stop-color="#1BBEE9"/>
</linearGradient>
</defs>
</svg>
